<svg xmlns="http://www.w3.org/2000/svg" xmlns:xlink="http://www.w3.org/1999/xlink" width="69" height="64" viewBox="0 0 69 64">
  <defs>
    <clipPath id="clip-rainy">
      <rect width="69" height="64"/>
    </clipPath>
  </defs>
  <g id="rainy" clip-path="url(#clip-rainy)">
    <g id="Group_48" data-name="Group 48" transform="translate(-307.98 1958.784)">
      <g id="Group_39" data-name="Group 39" transform="translate(316.8 -1917.882)">
        <path id="Path_41" data-name="Path 41" d="M41.128,422.464c-5.423,5.074-4.066,9.664,0,9.664S46.551,427.537,41.128,422.464Z" transform="translate(-37.551 -414.457)" fill="#81ebeb"/>
        <path id="Path_42" data-name="Path 42" d="M141.048,354.489c-3.221,3.014-2.415,5.74,0,5.74S144.269,357.5,141.048,354.489Z" transform="translate(-126.982 -354.489)" fill="#00cec8"/>
        <path id="Path_43" data-name="Path 43" d="M417.3,422.464c5.423,5.074,4.066,9.664,0,9.664S411.878,427.537,417.3,422.464Z" transform="translate(-369.412 -414.457)" fill="#81ebeb"/>
        <path id="Path_44" data-name="Path 44" d="M224.767,408.841c6.324,5.916,4.742,11.269,0,11.269S218.443,414.757,224.767,408.841Z" transform="translate(-199.034 -402.438)" fill="#81ebeb"/>
        <path id="Path_45" data-name="Path 45" d="M337.5,364.485c3.957,3.7,2.967,7.052,0,7.052S333.54,368.187,337.5,364.485Z" transform="translate(-299.862 -363.307)" fill="#00cec8"/>
      </g>
      <path id="Path_48" data-name="Path 48" d="M235.791,168.266a10.415,10.415,0,0,1-19.087,5.761,15.616,15.616,0,0,1-19.129,2.435,11.944,11.944,0,1,1-5.3-21.549,15.615,15.615,0,0,1,28.382,4.072,10.413,10.413,0,0,1,15.131,9.281Z" transform="translate(135.584 -2100.389)" fill="#dae1ea"/>
      <path id="Path_49" data-name="Path 49" d="M299.663,168.266A10.375,10.375,0,0,1,296,176.191a10.414,10.414,0,0,0-14.446-13,15.616,15.616,0,0,0-15.07-11.525c-5.756,0-8.256,2.225-10.334,3.248a15.615,15.615,0,0,1,28.382,4.072,10.413,10.413,0,0,1,15.131,9.281Z" transform="translate(71.712 -2100.389)" fill="#b9cfdf"/>
      <path id="Path_52" data-name="Path 52" d="M119.11,40.192c0-.131-.008,0-.453-.31,0,.017-2.183-.675-2.183-.687a11.769,11.769,0,0,0-6.7.332,16.831,16.831,0,0,0-2.117-3.987,1.314,1.314,0,0,0-2.136,1.531,14.19,14.19,0,0,1,2.173,4.576,1.314,1.314,0,0,0,1.865.828,9,9,0,0,1,4.121-.987A9.1,9.1,0,1,1,106.1,55.616a1.314,1.314,0,0,0-2.029-.194,14.3,14.3,0,0,1-17.519,2.231,1.314,1.314,0,0,0-1.438.057,10.624,10.624,0,1,1-6.16-19.278,10.782,10.782,0,0,1,1.449.1,1.315,1.315,0,0,0,1.3-.614,14.306,14.306,0,0,1,19.565-4.781,1.314,1.314,0,1,0,1.357-2.251A16.935,16.935,0,0,0,79.919,35.84c-.325-.024-.646-.036-.962-.036A13.249,13.249,0,0,0,67,54.768,11.623,11.623,0,0,0,68.663,57.4a13.247,13.247,0,0,0,17.273,2.925,16.934,16.934,0,0,0,18.91-2.031,11.725,11.725,0,1,0,14.264-18.1Z" transform="translate(247.279 -1982.706)"/>
      <path id="Path_53" data-name="Path 53" d="M35.074,415.2a.884.884,0,0,0-1.207,0c-3.187,2.981-4.516,6.214-3.556,8.646a4.224,4.224,0,0,0,4.159,2.547,4.224,4.224,0,0,0,4.159-2.547C39.59,421.415,38.261,418.183,35.074,415.2Zm1.912,8a2.465,2.465,0,0,1-2.516,1.428,2.465,2.465,0,0,1-2.516-1.428c-.492-1.246-.055-3.469,2.516-6.115C37.042,419.73,37.478,421.953,36.986,423.2Z" transform="translate(285.906 -2325.721)"/>
      <path id="Path_54" data-name="Path 54" d="M135.017,347.228a.883.883,0,0,0-1.207,0c-2,1.875-2.827,3.942-2.2,5.529a3.13,3.13,0,0,0,5.608,0C137.844,351.17,137.022,349.1,135.017,347.228Zm.557,4.88a1.395,1.395,0,0,1-2.321,0c-.224-.568-.022-1.648,1.161-2.974C135.6,350.46,135.8,351.54,135.574,352.108Z" transform="translate(196.452 -2265.755)"/>
      <path id="Path_55" data-name="Path 55" d="M411.248,415.2a.884.884,0,0,0-1.207,0c-3.187,2.981-4.516,6.214-3.556,8.646a4.67,4.67,0,0,0,8.319,0C415.764,421.415,414.435,418.183,411.248,415.2Zm1.912,8a2.93,2.93,0,0,1-5.031,0c-.492-1.246-.056-3.469,2.516-6.115C413.216,419.73,413.652,421.953,413.16,423.2Z" transform="translate(-45.955 -2325.721)"/>
      <path id="Path_56" data-name="Path 56" d="M218.752,401.58a.884.884,0,0,0-1.207,0,17.815,17.815,0,0,0-2.951,3.494.883.883,0,0,0,1.5.938,15.135,15.135,0,0,1,2.057-2.553c3.139,3.183,3.667,5.881,3.07,7.394a3.048,3.048,0,0,1-3.07,1.758,3.388,3.388,0,0,1-2.566-.952,3.026,3.026,0,0,1-.709-2.352.884.884,0,0,0-1.762-.131,4.742,4.742,0,0,0,1.177,3.685,5.165,5.165,0,0,0,3.86,1.517,4.783,4.783,0,0,0,4.714-2.877C223.959,408.722,222.423,405.014,218.752,401.58Z" transform="translate(124.384 -2313.704)"/>
      <path id="Path_57" data-name="Path 57" d="M331.461,357.224a.883.883,0,0,0-1.207,0c-2.4,2.245-3.392,4.7-2.654,6.571a3.645,3.645,0,0,0,6.514,0C334.853,361.925,333.861,359.469,331.461,357.224Zm1.01,5.922a1.907,1.907,0,0,1-3.227,0c-.463-1.174.481-2.782,1.614-4.021C331.989,360.364,332.934,361.972,332.471,363.146Z" transform="translate(23.578 -2274.573)"/>
      <path id="Path_69" data-name="Path 69" d="M129.854,352.157c0-1.612-1.641-2.919-3.665-2.919s-3.665,1.307-3.665,2.919,1.641,2.919,3.665,2.919S129.854,353.769,129.854,352.157Zm0,0" transform="translate(205.312 -2285.325)" fill="#ffa6bb"/>
      <path id="Path_70" data-name="Path 70" d="M317.843,352.157c0-1.612-1.641-2.919-3.665-2.919s-3.666,1.307-3.666,2.919,1.641,2.919,3.666,2.919S317.843,353.769,317.843,352.157Zm0,0" transform="translate(40.313 -2285.325)" fill="#ffa6bb"/>
      <path id="Path_72" data-name="Path 72" d="M219.793,349.174a5.481,5.481,0,0,0,3.364-1.152.917.917,0,0,0-1.124-1.45,3.654,3.654,0,0,1-4.481,0,.917.917,0,0,0-1.124,1.45A5.483,5.483,0,0,0,219.793,349.174Zm0,0" transform="translate(123.203 -2282.816)"/>
      <path id="Path_73" data-name="Path 73" d="M148.625,339.251a.742.742,0,0,1,.626-.338.757.757,0,0,1,.627.338.937.937,0,0,0,1.27.263.917.917,0,0,0,.263-1.27,2.584,2.584,0,0,0-4.319,0,.917.917,0,1,0,1.533,1.007Zm0,0" transform="translate(183.881 -2274.652)"/>
      <path id="Path_74" data-name="Path 74" d="M309.938,339.251a.742.742,0,0,1,.627-.338.757.757,0,0,1,.626.338.937.937,0,0,0,1.27.263.917.917,0,0,0,.263-1.27,2.583,2.583,0,0,0-4.319,0,.917.917,0,1,0,1.533,1.007Zm0,0" transform="translate(42.295 -2274.652)"/>
    </g>
  </g>
</svg>
