<svg xmlns="http://www.w3.org/2000/svg" xmlns:xlink="http://www.w3.org/1999/xlink" width="69" height="64" viewBox="0 0 69 64">
  <defs>
    <clipPath id="clip-favicon">
      <rect width="69" height="64"/>
    </clipPath>
  </defs>
  <g id="favicon" clip-path="url(#clip-favicon)">
    <g id="Group_48" data-name="Group 48" transform="translate(-312.98 1966.688)">
      <path id="Path_48" data-name="Path 48" d="M244.673,171.5a12.035,12.035,0,0,1-22.057,6.657,18.045,18.045,0,0,1-22.106,2.814,13.8,13.8,0,1,1-6.121-24.9,18.044,18.044,0,0,1,32.8,4.705A12.033,12.033,0,0,1,244.673,171.5Z" transform="translate(135.788 -2100.185)" fill="#dae1ea"/>
      <path id="Path_49" data-name="Path 49" d="M306.433,171.5a11.99,11.99,0,0,1-4.234,9.158,12.034,12.034,0,0,0-16.694-15.023,18.046,18.046,0,0,0-17.414-13.318c-6.651,0-9.54,2.571-11.942,3.754a18.045,18.045,0,0,1,32.8,4.705A12.033,12.033,0,0,1,306.433,171.5Z" transform="translate(74.027 -2100.185)" fill="#b9cfdf"/>
      <path id="Path_52" data-name="Path 52" d="M127.419,42.016c0-.152-.009,0-.524-.358,0,.019-2.522-.78-2.522-.794a13.6,13.6,0,0,0-7.739.383,19.449,19.449,0,0,0-2.446-4.608,1.519,1.519,0,0,0-2.469,1.769,16.4,16.4,0,0,1,2.512,5.289,1.519,1.519,0,0,0,2.155.957,10.4,10.4,0,0,1,4.762-1.141A10.511,10.511,0,1,1,112.39,59.84a1.518,1.518,0,0,0-2.345-.225A16.525,16.525,0,0,1,89.8,62.194a1.519,1.519,0,0,0-1.662.066A12.277,12.277,0,1,1,81.02,39.982a12.459,12.459,0,0,1,1.674.117,1.52,1.52,0,0,0,1.5-.71A16.532,16.532,0,0,1,106.8,33.864a1.519,1.519,0,1,0,1.569-2.6,19.57,19.57,0,0,0-26.239,5.724c-.375-.028-.747-.042-1.111-.042A15.311,15.311,0,0,0,67.2,58.86c.026.111,1.445,2.807,1.925,3.037a15.308,15.308,0,0,0,19.96,3.38,19.569,19.569,0,0,0,21.852-2.347,13.549,13.549,0,1,0,16.483-20.913Z" transform="translate(247.279 -1982.706)"/>
      <path id="Path_69" data-name="Path 69" d="M130.995,352.611c0-1.863-1.9-3.373-4.236-3.373s-4.236,1.51-4.236,3.373,1.9,3.373,4.236,3.373S130.995,354.474,130.995,352.611Zm0,0" transform="translate(207.624 -2282.5)" fill="#ffa6bb"/>
      <path id="Path_70" data-name="Path 70" d="M318.984,352.611c0-1.863-1.9-3.373-4.236-3.373s-4.236,1.51-4.236,3.373,1.9,3.373,4.236,3.373S318.984,354.474,318.984,352.611Zm0,0" transform="translate(46.202 -2282.5)" fill="#ffa6bb"/>
      <path id="Path_72" data-name="Path 72" d="M220.372,349.609a6.333,6.333,0,0,0,3.888-1.331,1.06,1.06,0,0,0-1.3-1.675,4.223,4.223,0,0,1-5.178,0,1.06,1.06,0,0,0-1.3,1.675A6.336,6.336,0,0,0,220.372,349.609Zm0,0" transform="translate(127.294 -2280.046)"/>
      <path id="Path_73" data-name="Path 73" d="M148.887,339.589a.857.857,0,0,1,.724-.391.875.875,0,0,1,.724.391,1.083,1.083,0,0,0,1.468.3,1.06,1.06,0,0,0,.3-1.468,2.986,2.986,0,0,0-4.991,0,1.06,1.06,0,1,0,1.772,1.164Zm0,0" transform="translate(186.657 -2272.059)"/>
      <path id="Path_74" data-name="Path 74" d="M310.2,339.589a.857.857,0,0,1,.724-.391.875.875,0,0,1,.724.391,1.083,1.083,0,0,0,1.468.3,1.06,1.06,0,0,0,.3-1.468,2.985,2.985,0,0,0-4.991,0,1.06,1.06,0,1,0,1.771,1.164Zm0,0" transform="translate(48.14 -2272.059)"/>
    </g>
  </g>
</svg>
